<svg xmlns="http://www.w3.org/2000/svg" width="512" height="512" viewBox="0 0 512 512" version="1.1">
	<path d="M 234 1.092 C 174.062 6.246, 118.992 31.978, 75.926 74.956 C 55.185 95.654, 41.862 113.544, 29.414 137.415 C -12.215 217.241, -9.046 313.067, 37.747 389.393 C 58.193 422.743, 90.530 454.920, 123.500 474.722 C 154.552 493.372, 185.577 504.313, 222.500 509.632 C 240.751 512.262, 275.144 512.043, 293.500 509.182 C 320.563 504.962, 343.929 497.686, 367.707 486.074 C 395.269 472.614, 413.739 459.317, 436.528 436.528 C 459.284 413.771, 471.473 396.910, 485.419 368.893 C 498.205 343.207, 506.494 315.634, 509.523 288.706 C 510.401 280.893, 511.543 272.581, 512.060 270.236 C 513.322 264.512, 513.275 242.288, 512 241.500 C 511.450 241.160, 510.998 238.771, 510.995 236.191 C 510.988 228.665, 507.417 206.515, 504.086 193.330 C 495.778 160.447, 480.634 128.958, 459.842 101.328 C 450.433 88.825, 429.216 66.927, 416.946 57.056 C 364.970 15.239, 300.133 -4.594, 234 1.092 M 230.052 61.624 C 153.522 72.009, 90.002 126.361, 67.933 200.344 C 60.698 224.598, 58.247 254.746, 61.457 280 C 74.892 385.711, 168.940 461.191, 274.500 450.981 C 342.609 444.394, 401.881 403.212, 432.076 341.500 C 479.171 245.246, 439.267 128.514, 342.888 80.597 C 308.476 63.489, 267.314 56.567, 230.052 61.624 M 241 105 L 241 120 256 120 L 271 120 271 105 L 271 90 256 90 L 241 90 241 105 M 298.743 191.754 L 256.003 234.494 213.502 192.002 L 171.001 149.510 160.256 160.256 L 149.510 171.001 191.994 213.494 L 234.478 255.987 224.001 266.499 L 213.524 277.012 224.256 287.744 L 234.988 298.476 245.494 288.006 L 256 277.536 266.267 287.768 C 271.914 293.396, 276.985 298, 277.536 298 C 278.818 298, 298 278.784, 298 277.499 C 298 276.968, 293.393 271.911, 287.761 266.260 L 277.522 255.986 320.268 213.233 L 363.013 170.479 352.247 159.747 L 341.482 149.015 298.743 191.754 M 90 256 L 90 271 105 271 L 120 271 120 256 L 120 241 105 241 L 90 241 90 256 M 392 256 L 392 271 407 271 L 422 271 422 256 L 422 241 407 241 L 392 241 392 256 M 0.392 256 C 0.392 263.425, 0.549 266.462, 0.742 262.750 C 0.934 259.038, 0.934 252.963, 0.742 249.250 C 0.549 245.537, 0.392 248.575, 0.392 256 M 241 407 L 241 422 256 422 L 271 422 271 407 L 271 392 256 392 L 241 392 241 407" stroke="none" fill="black" fill-rule="evenodd"/>
</svg>